<svg width="20" height="20" viewBox="0 0 20 20" fill="none" xmlns="http://www.w3.org/2000/svg">
<path d="M9.99935 1.66666C5.40435 1.66666 1.66602 4.65749 1.66602 8.33332C1.66602 10.7567 3.24768 12.93 5.83268 14.1117V18.3333L10.2827 14.9958C14.7468 14.8767 18.3327 11.9333 18.3327 8.33332C18.3327 4.65749 14.5943 1.66666 9.99935 1.66666ZM9.99935 13.3333H9.72185L7.49935 15V12.9858L6.96518 12.78C4.72435 11.9175 3.33268 10.2133 3.33268 8.33332C3.33268 5.57582 6.32352 3.33332 9.99935 3.33332C13.6752 3.33332 16.666 5.57582 16.666 8.33332C16.666 11.0908 13.6752 13.3333 9.99935 13.3333Z" fill="#4B4242"/>
</svg>
