<svg width="20" height="20" viewBox="0 0 20 20" fill="none" xmlns="http://www.w3.org/2000/svg">
<path d="M18.29 7.64916C18.1825 7.33416 17.8984 7.11166 17.5667 7.08582L12.8159 6.70832L10.76 2.15749C10.6259 1.85832 10.3284 1.66666 10.0009 1.66666C9.67338 1.66666 9.37588 1.85832 9.24171 2.15666L7.18588 6.70832L2.43504 7.08582C2.10921 7.11166 1.82838 7.32582 1.71754 7.63332C1.60671 7.94082 1.68504 8.28499 1.91921 8.51332L5.43004 11.9358L4.18838 17.3125C4.11171 17.645 4.24588 17.9908 4.52671 18.185C4.67004 18.2833 4.83504 18.3333 5.00088 18.3333C5.16171 18.3333 5.32338 18.2867 5.46338 18.1933L10.0009 15.1683L14.5384 18.1933C14.8284 18.3867 15.2092 18.3792 15.4925 18.1733C15.7742 17.9675 15.8984 17.6067 15.8025 17.2717L14.2784 11.9383L18.0584 8.53666C18.3059 8.31332 18.3967 7.96499 18.29 7.64916Z" fill="#FFCA42"/>
</svg>
