<svg width="28" height="29" viewBox="0 0 28 29" fill="none" xmlns="http://www.w3.org/2000/svg">
<path d="M25.6046 11.209C25.4541 10.768 25.0563 10.4565 24.592 10.4203L17.9408 9.89183L15.0626 3.52066C14.8748 3.10183 14.4583 2.8335 13.9998 2.8335C13.5413 2.8335 13.1248 3.10183 12.937 3.5195L10.0588 9.89183L3.40765 10.4203C2.95148 10.4565 2.55831 10.7563 2.40315 11.1868C2.24798 11.6173 2.35765 12.0992 2.68548 12.4188L7.60065 17.2103L5.86231 24.7377C5.75498 25.2032 5.94281 25.6873 6.33598 25.9592C6.53665 26.0968 6.76765 26.1668 6.99981 26.1668C7.22498 26.1668 7.45131 26.1015 7.64731 25.9708L13.9998 21.7358L20.3523 25.9708C20.7583 26.2415 21.2915 26.231 21.6881 25.9428C22.0825 25.6547 22.2563 25.1495 22.1221 24.6805L19.9883 17.2138L25.2803 12.4515C25.6268 12.1388 25.754 11.6512 25.6046 11.209Z" fill="#BFBEBE"/>
</svg>
